<svg width="235" height="202" viewBox="0 0 235 202" fill="none" xmlns="http://www.w3.org/2000/svg">
<g clip-path="url(#clip0_716_13505)">
<path d="M150.181 140.034C149.689 140.034 149.217 139.846 148.858 139.51C148.5 139.174 148.283 138.715 148.251 138.225L147.963 133.838C147.93 133.326 148.101 132.821 148.44 132.435C148.779 132.049 149.257 131.813 149.77 131.779L184.16 129.529C184.703 129.493 185.247 129.564 185.762 129.738C186.276 129.913 186.752 130.187 187.161 130.545C187.569 130.903 187.903 131.338 188.144 131.825C188.384 132.312 188.526 132.842 188.562 133.384C188.598 133.926 188.526 134.469 188.351 134.984C188.176 135.498 187.902 135.973 187.543 136.381C187.184 136.789 186.749 137.123 186.261 137.363C185.774 137.603 185.243 137.744 184.701 137.78L150.31 140.03C150.267 140.033 150.224 140.034 150.181 140.034Z" fill="#6662FF"/>
<path d="M156.962 140.6C156.461 140.599 155.98 140.405 155.619 140.057C155.258 139.71 155.046 139.236 155.027 138.736L154.782 132.184C154.772 131.93 154.813 131.676 154.901 131.438C154.99 131.199 155.124 130.981 155.298 130.795C155.471 130.608 155.679 130.458 155.91 130.352C156.141 130.246 156.391 130.186 156.645 130.177L184.926 129.12C185.439 129.101 185.939 129.287 186.316 129.636C186.692 129.985 186.915 130.47 186.934 130.983L187.179 137.535C187.189 137.789 187.148 138.043 187.059 138.281C186.971 138.52 186.836 138.738 186.663 138.925C186.49 139.111 186.282 139.261 186.051 139.367C185.82 139.473 185.57 139.533 185.315 139.542L157.035 140.599C157.011 140.6 156.986 140.6 156.962 140.6Z" fill="#2F2E41"/>
<path d="M190.102 201H185.703C185.189 200.999 184.697 200.795 184.334 200.432C183.97 200.069 183.766 199.577 183.766 199.063V162.422C183.766 161.909 183.97 161.417 184.334 161.054C184.697 160.691 185.189 160.487 185.703 160.486H190.102C190.616 160.487 191.108 160.691 191.471 161.054C191.834 161.417 192.039 161.909 192.039 162.422V199.063C192.039 199.577 191.834 200.069 191.471 200.432C191.108 200.795 190.616 200.999 190.102 201Z" fill="#2F2E41"/>
<path d="M179.594 201H175.195C174.681 200.999 174.189 200.795 173.826 200.432C173.463 200.069 173.258 199.577 173.258 199.063V162.422C173.258 161.909 173.463 161.417 173.826 161.054C174.189 160.691 174.681 160.487 175.195 160.486H179.594C180.108 160.487 180.6 160.691 180.963 161.054C181.327 161.417 181.531 161.909 181.531 162.422V199.063C181.531 199.577 181.327 200.069 180.963 200.432C180.6 200.795 180.108 200.999 179.594 201Z" fill="#2F2E41"/>
<path d="M183.421 122.247C191.816 122.247 198.621 115.446 198.621 107.056C198.621 98.6664 191.816 91.8652 183.421 91.8652C175.026 91.8652 168.221 98.6664 168.221 107.056C168.221 115.446 175.026 122.247 183.421 122.247Z" fill="#6662FF"/>
<path d="M175.193 112.243C174.704 112.082 174.256 111.819 173.877 111.471C173.626 111.222 173.433 110.921 173.31 110.59C173.188 110.259 173.139 109.905 173.168 109.553C173.184 109.302 173.258 109.058 173.384 108.841C173.509 108.623 173.684 108.438 173.893 108.298C174.437 107.95 175.164 107.949 175.904 108.275L175.876 102.345L176.472 102.342L176.505 109.313L176.046 109.025C175.513 108.691 174.753 108.455 174.215 108.8C174.082 108.891 173.972 109.011 173.894 109.152C173.815 109.292 173.77 109.449 173.762 109.61C173.742 109.872 173.778 110.135 173.869 110.382C173.96 110.629 174.103 110.853 174.289 111.04C174.947 111.668 175.907 111.865 177.002 112.04L176.908 112.628C176.326 112.551 175.752 112.422 175.193 112.243Z" fill="#2F2E41"/>
<path d="M169.731 102.046L169.653 102.637L172.836 103.057L172.914 102.466L169.731 102.046Z" fill="#2F2E41"/>
<path d="M179.777 103.372L179.699 103.963L182.882 104.383L182.96 103.792L179.777 103.372Z" fill="#2F2E41"/>
<path d="M193.333 172.254H170.482C169.916 172.254 169.366 172.064 168.921 171.715C168.475 171.367 168.159 170.879 168.022 170.33C167.954 170.029 167.943 169.718 167.989 169.413C167.989 169.413 172.452 144.362 174.66 132.332C174.982 130.578 175.909 128.993 177.28 127.851C178.651 126.71 180.378 126.086 182.162 126.086C186.534 126.086 190.727 127.822 193.819 130.911C196.91 134.001 198.647 138.191 198.647 142.56V166.944C198.647 167.641 198.509 168.332 198.242 168.976C197.975 169.62 197.584 170.206 197.09 170.699C196.597 171.192 196.011 171.583 195.366 171.85C194.722 172.117 194.031 172.254 193.333 172.254Z" fill="#2F2E41"/>
<path d="M188.926 168.944C188.759 169.278 188.498 169.557 188.176 169.747C187.854 169.937 187.484 170.03 187.11 170.015L182.715 169.83C182.461 169.819 182.211 169.759 181.981 169.651C181.75 169.544 181.542 169.393 181.37 169.206C181.198 169.018 181.065 168.799 180.977 168.56C180.89 168.322 180.85 168.068 180.861 167.814L182.312 133.402C182.334 132.859 182.464 132.327 182.693 131.834C182.922 131.342 183.245 130.899 183.645 130.532C184.045 130.164 184.514 129.879 185.024 129.693C185.534 129.506 186.076 129.422 186.619 129.445C187.161 129.468 187.694 129.597 188.187 129.826C188.68 130.055 189.123 130.378 189.49 130.778C189.858 131.178 190.143 131.646 190.33 132.156C190.516 132.666 190.601 133.207 190.578 133.75L189.127 168.162C189.116 168.434 189.047 168.7 188.926 168.944Z" fill="#6662FF"/>
<path d="M191.175 159.82C191.008 160.155 190.748 160.434 190.426 160.624C190.104 160.814 189.734 160.907 189.36 160.891L181.853 160.575C181.34 160.553 180.856 160.328 180.509 159.95C180.161 159.573 179.978 159.072 179.999 158.559L181.19 130.302C181.201 130.048 181.261 129.798 181.368 129.568C181.475 129.337 181.627 129.13 181.814 128.958C182.002 128.786 182.221 128.652 182.46 128.565C182.699 128.478 182.953 128.438 183.207 128.449L190.714 128.765C190.968 128.776 191.218 128.836 191.448 128.943C191.679 129.05 191.887 129.202 192.059 129.389C192.231 129.576 192.364 129.796 192.452 130.034C192.539 130.273 192.579 130.527 192.568 130.781L191.377 159.038C191.366 159.31 191.297 159.577 191.175 159.82Z" fill="#2F2E41"/>
<path d="M182.576 97.1892C179.297 98.4813 174.343 99.8549 172.182 96.0186C171.76 95.2345 171.51 94.3696 171.448 93.4815C171.387 92.5933 171.516 91.7023 171.826 90.8677C172.479 89.0578 173.867 87.5667 175.45 86.5131C178.415 84.5394 182.166 84.0021 185.618 84.7649C187.354 85.1426 189.002 85.8501 190.471 86.849C192.141 87.9932 193.317 89.5377 194.499 91.1542C195.707 92.8067 197.075 94.4735 199.061 95.1975C200.685 95.7894 202.72 95.4872 203.869 94.1099C204.137 93.7882 204.343 93.4193 204.476 93.0223C204.648 92.516 203.847 92.2987 203.676 92.8019C203.072 94.5745 200.85 94.9718 199.282 94.398C197.211 93.6405 195.902 91.6725 194.66 89.9734C193.473 88.3492 192.16 86.9192 190.445 85.8418C188.904 84.8805 187.197 84.2144 185.411 83.8776C181.816 83.1942 177.945 83.7999 174.899 85.8867C173.22 86.9854 171.905 88.5564 171.119 90.4016C170.421 92.1474 170.439 94.0975 171.169 95.8304C171.535 96.6939 172.107 97.455 172.834 98.0476C173.562 98.6401 174.423 99.0462 175.344 99.2305C177.352 99.6373 179.439 99.1693 181.346 98.5243C181.834 98.3591 182.317 98.1777 182.797 97.9886C183.288 97.7952 183.074 96.993 182.576 97.1892Z" fill="#2F2E41"/>
<path d="M147.635 29.0176H43.5699C40.0416 29.0215 36.6589 30.4241 34.164 32.9174C31.6691 35.4108 30.2657 38.7914 30.2617 42.3176V99.2139C30.2657 102.74 31.6691 106.121 34.164 108.614C36.6589 111.107 40.0416 112.51 43.5699 112.514H147.635C151.163 112.51 154.546 111.107 157.041 108.614C159.536 106.121 160.939 102.74 160.943 99.2139V42.3176C160.939 38.7914 159.536 35.4108 157.041 32.9174C154.546 30.4241 151.163 29.0215 147.635 29.0176Z" fill="#5B4471"/>
<path d="M147.635 32.8457H43.5699C41.0573 32.8485 38.6484 33.8473 36.8717 35.6229C35.095 37.3984 34.0956 39.8059 34.0928 42.3169V99.2133C34.0956 101.724 35.095 104.132 36.8717 105.907C38.6484 107.683 41.0573 108.682 43.5699 108.684H147.635C150.147 108.682 152.556 107.683 154.333 105.907C156.11 104.132 157.109 101.724 157.112 99.2133V42.3169C157.109 39.8059 156.11 37.3985 154.333 35.6229C152.556 33.8473 150.147 32.8485 147.635 32.8457Z" fill="white"/>
<path d="M139.718 132.19L117.492 109.979L143.73 110.861V130.529C143.735 130.995 143.599 131.451 143.341 131.839C143.082 132.226 142.712 132.526 142.279 132.7C141.99 132.821 141.679 132.884 141.365 132.884C141.058 132.884 140.755 132.822 140.472 132.703C140.189 132.583 139.933 132.409 139.718 132.19Z" fill="#5B4471"/>
<path d="M72.6498 77.9509C76.6207 77.9509 79.8397 74.7339 79.8397 70.7655C79.8397 66.7971 76.6207 63.5801 72.6498 63.5801C68.679 63.5801 65.46 66.7971 65.46 70.7655C65.46 74.7339 68.679 77.9509 72.6498 77.9509Z" fill="#6662FF"/>
<path d="M95.602 77.9509C99.5729 77.9509 102.792 74.7339 102.792 70.7655C102.792 66.7971 99.5729 63.5801 95.602 63.5801C91.6311 63.5801 88.4121 66.7971 88.4121 70.7655C88.4121 74.7339 91.6311 77.9509 95.602 77.9509Z" fill="#6662FF"/>
<path d="M118.554 77.9509C122.525 77.9509 125.744 74.7339 125.744 70.7655C125.744 66.7971 122.525 63.5801 118.554 63.5801C114.583 63.5801 111.364 66.7971 111.364 70.7655C111.364 74.7339 114.583 77.9509 118.554 77.9509Z" fill="#6662FF"/>
</g>
<defs>
<clipPath id="clip0_716_13505">
<rect width="174" height="201" fill="white" transform="translate(30.25 0.5)"/>
</clipPath>
</defs>
</svg>
